<svg xmlns="http://www.w3.org/2000/svg" width="900" height="430" viewBox="0 0 900 430">
<rect width="100%" height="100%" fill="white"/>
<text x="450" y="32" text-anchor="middle" font-size="20" font-family="sans-serif">R7 直接比較可能5県の基金年間平均：現預金・債券構成</text>
<text x="110" y="95" text-anchor="end" font-size="14" font-family="sans-serif">福島</text><rect x="120" y="70" width="539.4" height="38" fill="#d9d9d9"/><rect x="659.4" y="70" width="180.6" height="38" fill="#555555"/><text x="389.7" y="95" text-anchor="middle" font-size="12" font-family="sans-serif">74.9%</text><text x="749.7" y="95" text-anchor="middle" font-size="12" fill="white" font-family="sans-serif">25.1%</text>
<text x="110" y="151" text-anchor="end" font-size="14" font-family="sans-serif">埼玉</text><rect x="120" y="126" width="252.0" height="38" fill="#d9d9d9"/><rect x="372.0" y="126" width="468.0" height="38" fill="#555555"/><text x="246.0" y="151" text-anchor="middle" font-size="12" font-family="sans-serif">35.0%</text><text x="606.0" y="151" text-anchor="middle" font-size="12" fill="white" font-family="sans-serif">65.0%</text>
<text x="110" y="207" text-anchor="end" font-size="14" font-family="sans-serif">千葉</text><rect x="120" y="182" width="287.3" height="38" fill="#d9d9d9"/><rect x="407.3" y="182" width="432.7" height="38" fill="#555555"/><text x="263.7" y="207" text-anchor="middle" font-size="12" font-family="sans-serif">39.9%</text><text x="623.7" y="207" text-anchor="middle" font-size="12" fill="white" font-family="sans-serif">60.1%</text>
<text x="110" y="263" text-anchor="end" font-size="14" font-family="sans-serif">静岡</text><rect x="120" y="238" width="276.1" height="38" fill="#d9d9d9"/><rect x="396.1" y="238" width="443.9" height="38" fill="#555555"/><text x="258.1" y="263" text-anchor="middle" font-size="12" font-family="sans-serif">38.3%</text><text x="618.1" y="263" text-anchor="middle" font-size="12" fill="white" font-family="sans-serif">61.7%</text>
<text x="110" y="319" text-anchor="end" font-size="14" font-family="sans-serif">鳥取</text><rect x="120" y="294" width="610.3" height="38" fill="#d9d9d9"/><rect x="730.3" y="294" width="109.7" height="38" fill="#555555"/><text x="425.2" y="319" text-anchor="middle" font-size="12" font-family="sans-serif">84.8%</text><text x="785.2" y="319" text-anchor="middle" font-size="12" fill="white" font-family="sans-serif">15.2%</text>
<rect x="120" y="388" width="18" height="12" fill="#d9d9d9"/><text x="145" y="400" font-size="12" font-family="sans-serif">現預金</text><rect x="220" y="388" width="18" height="12" fill="#555555"/><text x="245" y="400" font-size="12" font-family="sans-serif">債券</text>
<text x="450" y="423" text-anchor="middle" font-size="10" font-family="sans-serif">出典：福島・埼玉・千葉・静岡・鳥取各県R7公金・基金運用実績。本調査集計。</text>
</svg>