<svg xmlns="http://www.w3.org/2000/svg" width="900" height="500" viewBox="0 0 900 500">
<style>text{font-family:"Noto Sans CJK JP",sans-serif;font-size:12px;fill:currentColor}.title{font-size:20px;font-weight:700}.small{font-size:10px}.grid{stroke:currentColor;stroke-opacity:.15}.series{fill:none;stroke:currentColor;stroke-width:2}</style>
<text x="450" y="28" text-anchor="middle" class="title">図3 R3～R6基金繰替運用の期間別推移</text>
<line x1="80" y1="430" x2="875" y2="430" class="grid"/><text x="72" y="434" text-anchor="end">0</text><line x1="80" y1="355" x2="875" y2="355" class="grid"/><text x="72" y="359" text-anchor="end">210</text><line x1="80" y1="280" x2="875" y2="280" class="grid"/><text x="72" y="284" text-anchor="end">420</text><line x1="80" y1="205" x2="875" y2="205" class="grid"/><text x="72" y="209" text-anchor="end">630</text><line x1="80" y1="130" x2="875" y2="130" class="grid"/><text x="72" y="134" text-anchor="end">840</text><line x1="80" y1="55" x2="875" y2="55" class="grid"/><text x="72" y="59" text-anchor="end">1050</text>
<text x="80" y="455" text-anchor="middle">4～5月</text><text x="345" y="455" text-anchor="middle">夏期</text><text x="610" y="455" text-anchor="middle">秋期</text><text x="875" y="455" text-anchor="middle">年度末</text>
<path d="M80,138.6 L345,268.7 L610,263.8 L875,204.5" class="series"/><path d="M80,166.9 L345,357.3 L610,208.8 L875,184.7" class="series" stroke-dasharray="6,4"/><path d="M80,176.3 L345,341.5 L610,207.5 L875,84.3" class="series" stroke-dasharray="2,3"/><path d="M80,130.1 L345,287.7 L610,162.4 L875,129.0" class="series" stroke-dasharray="10,3,2,3"/>
<text x="100" y="60" class="small">R3 実線</text><text x="210" y="60" class="small">R4 破線</text><text x="320" y="60" class="small">R5 点線</text><text x="430" y="60" class="small">R6 長破線</text><text x="18" y="242" transform="rotate(-90 18 242)" text-anchor="middle">億円</text>
</svg>